<svg preserveAspectRatio="none" width="100%" height="100%" overflow="visible" style="display: block;" viewBox="0 0 21.3333 21.3335" fill="none" xmlns="http://www.w3.org/2000/svg">
<path id="coolicon" d="M0 21.3335V12.0001H9.33333L5.044 16.2934C6.52395 17.8068 8.54995 18.662 10.6667 18.6668C14.0526 18.6618 17.0687 16.5257 18.1973 13.3334H18.2213C18.3741 12.8996 18.4896 12.4535 18.5667 12.0001H21.2493C20.5774 17.3333 16.042 21.3333 10.6667 21.3335H10.6533C7.82502 21.3419 5.11088 20.2184 3.116 18.2134L0 21.3335ZM2.76533 9.33344H0.0826667C0.754333 4.00225 5.28667 0.00296651 10.66 5.42666e-05H10.6667C13.4955 -0.00899705 16.2103 1.11456 18.2053 3.12011L21.3333 5.42666e-05V9.33344H12L16.296 5.04011C14.8145 3.52497 12.7857 2.66963 10.6667 2.66678C7.28074 2.67177 4.26464 4.80782 3.136 8.00011H3.112C2.95808 8.43359 2.84252 8.87974 2.76667 9.33344H2.76533Z" fill="var(--fill-0, #121212)"/>
</svg>
