<svg preserveAspectRatio="none" width="100%" height="100%" overflow="visible" style="display: block;" viewBox="0 0 32 32.0003" fill="none" xmlns="http://www.w3.org/2000/svg">
<path id="coolicon" d="M0 32.0002V18.0002H14L7.566 24.4402C9.78592 26.7102 12.8249 27.993 16 28.0002C21.0789 27.9927 25.603 24.7886 27.296 20.0002H27.332C27.5611 19.3494 27.7344 18.6803 27.85 18.0002H31.874C30.8661 26 24.063 31.9999 16 32.0002H15.98C11.7375 32.0128 7.66633 30.3276 4.674 27.3202L0 32.0002ZM4.148 14.0002H0.124C1.1315 6.00338 7.93 0.00444977 15.99 8.13998e-05H16C20.2433 -0.0134956 24.3154 1.67184 27.308 4.68016L32 8.13998e-05V14.0002H18L24.444 7.56016C22.2218 5.28746 19.1786 4.00444 16 4.00016C10.9211 4.00766 6.39696 7.21173 4.704 12.0002H4.668C4.43711 12.6504 4.26378 13.3196 4.15 14.0002H4.148Z" fill="var(--fill-0, #121212)"/>
</svg>
