<svg preserveAspectRatio="none" width="100%" height="100%" overflow="visible" style="display: block;" viewBox="0 0 21.3333 21.3333" fill="none" xmlns="http://www.w3.org/2000/svg">
<path id="coolicon" d="M19.9967 21.3333C8.62116 21.3494 -0.0121568 12.6127 1.28499e-05 1.33668C1.28499e-05 0.6003 0.596967 0 1.33335 0H4.85249C5.51325 0 6.07457 0.485506 6.1716 1.13911C6.40415 2.7056 6.86023 4.23062 7.52598 5.6676L7.66299 5.96334C7.85351 6.37454 7.72437 6.86312 7.35557 7.1265C6.26573 7.90479 5.84923 9.47141 6.69826 10.6938C7.7637 12.2278 9.10673 13.5705 10.6404 14.6355C11.8627 15.4843 13.4291 15.0678 14.2073 13.9782C14.4709 13.6092 14.9597 13.48 15.3712 13.6706L15.6656 13.807C17.1026 14.4727 18.6278 14.9288 20.1944 15.1613C20.8481 15.2583 21.3333 15.8196 21.3333 16.4804V20C21.3333 20.7364 20.7349 21.3333 19.9985 21.3333L19.9967 21.3333Z" fill="var(--fill-0, #121212)"/>
</svg>
